<svg width="35" height="28" viewBox="0 0 35 28" fill="none" xmlns="http://www.w3.org/2000/svg">
<path d="M34.7257 12.6414C34.7194 11.5442 34.3752 10.4755 33.7399 9.58091C33.1047 8.68627 32.2092 8.00909 31.1753 7.64153C30.9736 7.5686 30.7573 7.54536 30.5446 7.57378C30.332 7.60221 30.1294 7.68146 29.9539 7.80482C29.7784 7.92818 29.6353 8.09203 29.5365 8.28247C29.4378 8.47291 29.3864 8.68434 29.3868 8.89884L29.4055 19.1069C29.406 19.3209 29.458 19.5317 29.5571 19.7214C29.6561 19.9112 29.7994 20.0743 29.9748 20.1971C30.1501 20.3198 30.3525 20.3986 30.5646 20.4268C30.7768 20.4549 30.9927 20.4316 31.194 20.3588C32.2299 19.9862 33.1253 19.3024 33.7576 18.4011C34.3898 17.4998 34.7279 16.4251 34.7257 15.3242V12.6414Z" fill="#4A3AFF"/>
<path d="M28.2618 1.24439C28.2618 0.914357 28.1307 0.597841 27.8974 0.364473C27.664 0.131105 27.3475 0 27.0175 0C26.6874 0 26.3709 0.131105 26.1375 0.364473C25.9042 0.597841 25.7731 0.914357 25.7731 1.24439V2.20755L3.18242 9.50091C3.05724 9.54144 2.94813 9.6206 2.87077 9.72703C2.79341 9.83345 2.75178 9.96167 2.75186 10.0932V17.5061C2.75185 17.6385 2.79409 17.7674 2.87242 17.8742C2.95075 17.9809 3.06109 18.0599 3.1874 18.0996L4.8051 18.6074C4.93141 18.6471 5.04176 18.7261 5.12009 18.8328C5.19842 18.9396 5.24065 19.0685 5.24064 19.2009V22.4251C5.24885 23.9055 5.84225 25.3224 6.89134 26.3669C7.94043 27.4113 9.36005 27.9984 10.8404 28H10.8665C12.3503 27.9914 13.7702 27.395 14.8149 26.3414C15.8597 25.2877 16.4441 23.8629 16.4401 22.3791V22.2547L25.7731 25.179V26.1322C25.7731 26.4622 25.9042 26.7787 26.1375 27.0121C26.3709 27.2455 26.6874 27.3766 27.0175 27.3766C27.3475 27.3766 27.664 27.2455 27.8974 27.0121C28.1307 26.7787 28.2618 26.4622 28.2618 26.1322V1.24439ZM13.9514 22.3853C13.9533 22.7939 13.8748 23.1988 13.7203 23.577C13.5658 23.9552 13.3382 24.2992 13.0508 24.5895C12.7633 24.8798 12.4214 25.1106 12.0447 25.2687C11.668 25.4269 11.2639 25.5093 10.8553 25.5112H10.8404C10.0187 25.5112 9.23046 25.1862 8.64761 24.6071C8.06476 24.028 7.73468 23.2418 7.72942 22.4202V20.3706C7.72941 20.273 7.75241 20.1766 7.79655 20.0895C7.8407 20.0023 7.90474 19.9268 7.9835 19.869C8.06226 19.8112 8.15353 19.7728 8.24991 19.7568C8.34629 19.7408 8.44508 19.7478 8.53827 19.7771L13.5158 21.3375C13.6421 21.3773 13.7525 21.4562 13.8308 21.563C13.9091 21.6697 13.9514 21.7987 13.9514 21.9311V22.3853Z" fill="#4A3AFF"/>
<path d="M2.75081 9.51867C2.75081 9.18453 2.6059 8.86407 2.34796 8.6278C2.09002 8.39153 1.74018 8.25879 1.3754 8.25879C1.01062 8.25879 0.660784 8.39153 0.402846 8.6278C0.144908 8.86407 0 9.18453 0 9.51867L0.00687701 18.3378C0.00687701 18.5033 0.0424529 18.6671 0.111573 18.82C0.180694 18.9728 0.282005 19.1117 0.409723 19.2287C0.537441 19.3457 0.689064 19.4385 0.855936 19.5018C1.02281 19.5651 1.20166 19.5977 1.38228 19.5977H1.3754C1.73453 19.5978 2.07946 19.4692 2.33647 19.2394C2.59348 19.0097 2.74219 18.6969 2.75081 18.3681V9.51867Z" fill="white"/>
</svg>
