<svg width="40" height="42" viewBox="0 0 40 42" fill="none" xmlns="http://www.w3.org/2000/svg">
<circle cx="19.7612" cy="20.4344" r="8.78843" fill="white"/>
<path fill-rule="evenodd" clip-rule="evenodd" d="M37.0193 23.9456C37.7589 24.3385 38.3295 24.9589 38.731 25.5792C39.5129 26.8613 39.4495 28.4329 38.6888 29.8183L37.2095 32.2997C36.4276 33.6232 34.9694 34.4503 33.469 34.4503C32.7294 34.4503 31.9052 34.2435 31.229 33.8299C30.6795 33.4784 30.0456 33.3543 29.3693 33.3543C27.2772 33.3543 25.5232 35.0707 25.4598 37.1178C25.4598 39.4958 23.5156 41.3569 21.0854 41.3569H18.2114C15.76 41.3569 13.8158 39.4958 13.8158 37.1178C13.7735 35.0707 12.0195 33.3543 9.92742 33.3543C9.23005 33.3543 8.59607 33.4784 8.06776 33.8299C7.39152 34.2435 6.54622 34.4503 5.82771 34.4503C4.30617 34.4503 2.84803 33.6232 2.06613 32.2997L0.607987 29.8183C-0.173915 28.4742 -0.21618 26.8613 0.565722 25.5792C0.903842 24.9589 1.53782 24.3385 2.25632 23.9456C2.84803 23.6561 3.22842 23.1805 3.58767 22.6222C4.64429 20.8439 4.01032 18.5072 2.21406 17.4526C0.12194 16.2739 -0.5543 13.6478 0.650252 11.6006L2.06613 9.16055C3.29181 7.11339 5.91224 6.38964 8.02549 7.58899C9.86402 8.58156 12.252 7.91985 13.3298 6.16218C13.6679 5.58318 13.8581 4.96283 13.8158 4.34247C13.7735 3.53602 14.006 2.77091 14.4075 2.15056C15.1894 0.868495 16.6053 0.0413569 18.148 0H21.1276C22.6914 0 24.1073 0.868495 24.8892 2.15056C25.2696 2.77091 25.5232 3.53602 25.4598 4.34247C25.4175 4.96283 25.6077 5.58318 25.9459 6.16218C27.0236 7.91985 29.4116 8.58156 31.2712 7.58899C33.3634 6.38964 36.0049 7.11339 37.2095 9.16055L38.6254 11.6006C39.851 13.6478 39.1748 16.2739 37.0615 17.4526C35.2653 18.5072 34.6313 20.8439 35.7091 22.6222C36.0472 23.1805 36.4276 23.6561 37.0193 23.9456ZM13.6687 20.6986C13.6687 23.9452 16.3525 26.53 19.6703 26.53C22.9881 26.53 25.6085 23.9452 25.6085 20.6986C25.6085 17.4521 22.9881 14.8466 19.6703 14.8466C16.3525 14.8466 13.6687 17.4521 13.6687 20.6986Z" fill="#4A3AFF"/>
</svg>
