<svg width="38" height="32" viewBox="0 0 38 32" fill="none" xmlns="http://www.w3.org/2000/svg">
<rect x="1.42865" y="1.47314" width="34.0457" height="28.1681" fill="white"/>
<rect x="6.59656" y="9.93018" width="23.7094" height="5.66188" rx="0.680278" fill="#4A3AFF"/>
<rect x="6.59656" y="18.3633" width="10.8407" height="7.31969" rx="0.680278" fill="#4A3AFF"/>
<rect x="19.4657" y="18.3633" width="10.8407" height="2.30835" rx="0.680278" fill="#4A3AFF"/>
<rect x="19.4657" y="23.375" width="10.8407" height="2.30835" rx="0.680278" fill="#4A3AFF"/>
<path d="M0 27.3171C0 28.5591 0.493378 29.7502 1.3716 30.6284C2.24982 31.5066 3.44094 32 4.68293 32H32.7805C34.0225 32 35.2136 31.5066 36.0918 30.6284C36.97 29.7502 37.4634 28.5591 37.4634 27.3171V4.68293C37.4634 3.44094 36.97 2.24982 36.0918 1.3716C35.2136 0.493378 34.0225 0 32.7805 0H4.68293C3.44094 0 2.24982 0.493378 1.3716 1.3716C0.493378 2.24982 0 3.44094 0 4.68293L0 27.3171ZM22.6341 3.90244C22.6269 4.17968 22.5437 4.44962 22.3938 4.68293C22.2635 4.91918 22.0723 5.11618 21.84 5.25337C21.6078 5.39057 21.3429 5.46294 21.0732 5.46294C20.8034 5.46294 20.5386 5.39057 20.3063 5.25337C20.074 5.11618 19.8828 4.91918 19.7526 4.68293C19.6026 4.44962 19.5195 4.17968 19.5122 3.90244C19.5192 3.62516 19.6024 3.35515 19.7526 3.12195C19.8828 2.88569 20.074 2.6887 20.3063 2.5515C20.5386 2.41431 20.8034 2.34194 21.0732 2.34194C21.3429 2.34194 21.6078 2.41431 21.84 2.5515C22.0723 2.6887 22.2635 2.88569 22.3938 3.12195C22.5439 3.35515 22.6271 3.62516 22.6341 3.90244ZM28.0976 3.90244C28.0903 4.17968 28.0071 4.44962 27.8572 4.68293C27.7269 4.91918 27.5357 5.11618 27.3035 5.25337C27.0712 5.39057 26.8064 5.46294 26.5366 5.46294C26.2668 5.46294 26.002 5.39057 25.7697 5.25337C25.5374 5.11618 25.3462 4.91918 25.216 4.68293C25.066 4.44962 24.9829 4.17968 24.9756 3.90244C24.9827 3.62516 25.0658 3.35515 25.216 3.12195C25.3462 2.88569 25.5374 2.6887 25.7697 2.5515C26.002 2.41431 26.2668 2.34194 26.5366 2.34194C26.8064 2.34194 27.0712 2.41431 27.3035 2.5515C27.5357 2.6887 27.7269 2.88569 27.8572 3.12195C28.0073 3.35515 28.0905 3.62516 28.0976 3.90244ZM33.561 3.90244C33.5537 4.17968 33.4705 4.44962 33.3206 4.68293C33.1904 4.91918 32.9991 5.11618 32.7669 5.25337C32.5346 5.39057 32.2698 5.46294 32 5.46294C31.7302 5.46294 31.4654 5.39057 31.2331 5.25337C31.0009 5.11618 30.8096 4.91918 30.6794 4.68293C30.5295 4.44962 30.4463 4.17968 30.439 3.90244C30.4461 3.62516 30.5292 3.35515 30.6794 3.12195C30.8117 2.88743 31.0034 2.69184 31.2352 2.55484C31.467 2.41784 31.7308 2.34425 32 2.34146C32.2999 2.34282 32.5931 2.43055 32.8444 2.59416C33.0958 2.75776 33.2947 2.99032 33.4174 3.264C33.5104 3.46407 33.5594 3.6818 33.561 3.90244ZM3.12195 8.19356C3.12195 8.09006 3.16307 7.9908 3.23625 7.91762C3.30944 7.84443 3.4087 7.80332 3.5122 7.80332H33.9512C34.0547 7.80332 34.154 7.84443 34.2272 7.91762C34.3003 7.9908 34.3415 8.09006 34.3415 8.19356V27.3155C34.3415 27.7295 34.177 28.1266 33.8843 28.4193C33.5915 28.712 33.1945 28.8765 32.7805 28.8765H4.68293C4.26893 28.8765 3.87189 28.712 3.57915 28.4193C3.28641 28.1266 3.12195 27.7295 3.12195 27.3155V8.19356Z" fill="#4A3AFF"/>
</svg>
